<?xml version="1.0" encoding="UTF-8" standalone="no"?>
<svg
   width="3779.5312"
   height="3779.5234"
   viewBox="0 0 1000.001 999.99889"
   version="1.1"
   id="svg5"
   xml:space="preserve"
   sodipodi:docname="motc-logo-webtab-icon.svg"
   inkscape:version="1.4 (86a8ad7, 2024-10-11)"
   xmlns:inkscape="http://www.inkscape.org/namespaces/inkscape"
   xmlns:sodipodi="http://sodipodi.sourceforge.net/DTD/sodipodi-0.dtd"
   xmlns:xlink="http://www.w3.org/1999/xlink"
   xmlns="http://www.w3.org/2000/svg"
   xmlns:svg="http://www.w3.org/2000/svg"
   xmlns:rdf="http://www.w3.org/1999/02/22-rdf-syntax-ns#"
   xmlns:cc="http://creativecommons.org/ns#"
   xmlns:dc="http://purl.org/dc/elements/1.1/"><sodipodi:namedview
     id="namedview1"
     pagecolor="#505050"
     bordercolor="#eeeeee"
     borderopacity="1"
     inkscape:showpageshadow="0"
     inkscape:pageopacity="0"
     inkscape:pagecheckerboard="0"
     inkscape:deskcolor="#505050"
     inkscape:zoom="0.10675949"
     inkscape:cx="1892.1035"
     inkscape:cy="1887.42"
     inkscape:window-width="1920"
     inkscape:window-height="1046"
     inkscape:window-x="-11"
     inkscape:window-y="-11"
     inkscape:window-maximized="1"
     inkscape:current-layer="svg5" /><metadata
     id="metadata5714"><rdf:RDF><cc:Work
         rdf:about=""><dc:format>image/svg+xml</dc:format><dc:type
           rdf:resource="http://purl.org/dc/dcmitype/StillImage" /></cc:Work></rdf:RDF></metadata><defs
     id="defs2"><linearGradient
       id="linearGradient32139"><stop
         style="stop-color:#182c34;stop-opacity:1;"
         offset="0"
         id="stop32135" /><stop
         style="stop-color:#182c34;stop-opacity:0;"
         offset="1"
         id="stop32137" /></linearGradient><linearGradient
       xlink:href="#linearGradient32139"
       id="linearGradient10"
       gradientUnits="userSpaceOnUse"
       gradientTransform="matrix(1.0881993,0,0,1.0881993,50547.934,-21998.43)"
       x1="-45991.527"
       y1="20614.969"
       x2="-45991.527"
       y2="21005.316" /><linearGradient
       xlink:href="#linearGradient32139"
       id="linearGradient11"
       gradientUnits="userSpaceOnUse"
       gradientTransform="matrix(1.0881993,0,0,1.0881993,50547.934,-21998.43)"
       x1="-45991.527"
       y1="20515.264"
       x2="-45991.527"
       y2="21005.316" /></defs><circle
     style="mix-blend-mode:normal;fill:#06f9b4;fill-opacity:1;stroke:none;stroke-width:10.4603;stroke-linecap:round;stroke-linejoin:round;paint-order:stroke fill markers"
     id="circle95467-1-9-9"
     cx="500.00079"
     cy="499.99991"
     r="500" /><circle
     style="mix-blend-mode:normal;fill:#182c34;fill-opacity:1;stroke:none;stroke-width:10.0863;stroke-linecap:round;stroke-linejoin:round;paint-order:stroke fill markers"
     id="circle95469-0-2-1"
     cx="500.00079"
     cy="499.99991"
     r="482.12369" /><circle
     style="mix-blend-mode:normal;fill:#26f9bb;fill-opacity:1;stroke:none;stroke-width:7.52173;stroke-linecap:round;stroke-linejoin:round;paint-order:stroke fill markers"
     id="circle95471-7-7-81"
     cx="500.00079"
     cy="499.99991"
     r="359.53934" /><circle
     style="mix-blend-mode:normal;fill:#182c34;fill-opacity:1;stroke:none;stroke-width:7.16142;stroke-linecap:round;stroke-linejoin:round;paint-order:stroke fill markers"
     id="circle95473-4-9-9"
     cx="500.00079"
     cy="499.99991"
     r="342.31656" /><path
     id="path95475-2-5-53"
     style="mix-blend-mode:normal;fill:#26f9bb;fill-opacity:1;stroke:none;stroke-width:11.2289;stroke-linecap:round;stroke-linejoin:round;paint-order:stroke fill markers"
     d="m 499.98043,169.07325 c -100.87739,0.18558 -199.55568,28.79925 -284.77731,82.40319 -6.92435,4.35642 -14.02731,14.50052 -15.75086,22.4989 -7.84759,36.40558 -11.88853,73.54419 -12.04859,110.81503 0.0464,209.62091 122.11204,400.03923 312.57676,487.58522 190.46471,-87.54599 312.535,-277.96431 312.57675,-487.58522 -0.16238,-37.70462 -4.27755,-75.27702 -12.2968,-112.09088 -1.67715,-7.69449 -8.52495,-17.4396 -15.19644,-21.62205 -85.35386,-53.52274 -184.1435,-81.99259 -285.08351,-82.00419 z" /><path
     id="path95477-2-4-2"
     style="mix-blend-mode:normal;fill:#182c34;fill-opacity:1;stroke:none;stroke-width:9.36586;stroke-linecap:round;stroke-linejoin:round;paint-order:stroke fill markers"
     d="M 499.98717,227.41941 A 447.68852,447.68852 0 0 0 252.08563,302.87445 447.68852,447.68852 0 0 0 239.26422,407.34056 447.68852,447.68852 0 0 0 499.98717,814.03108 447.68852,447.68852 0 0 0 760.70062,407.34056 447.68852,447.68852 0 0 0 747.75935,302.26567 447.68852,447.68852 0 0 0 499.98717,227.41941 Z" /><path
     style="mix-blend-mode:normal;fill:url(#linearGradient10);fill-opacity:1;stroke:none;stroke-width:11.2289;stroke-linecap:round;stroke-linejoin:round;paint-order:stroke fill markers"
     d="m 358.24965,188.40157 c -26.6863,7.57071 -56.32707,18.16533 -81.52758,29.77014 -33.497,26.52365 -62.13044,59.07038 -84.29467,95.60365 -1.74643,14.07796 -3.64505,30.68521 -4.27571,44.85544 33.86036,-73.31195 96.95057,-136.00551 170.09796,-170.22923 z"
     id="path95479-5-1-5" /><path
     style="mix-blend-mode:normal;fill:url(#linearGradient11);fill-opacity:1;stroke:none;stroke-width:11.2289;stroke-linecap:round;stroke-linejoin:round;paint-order:stroke fill markers"
     d="m 640.24746,187.74523 c 74.06341,34.32741 137.62161,96.81169 171.57709,171.06059 -0.82184,-14.52218 -2.30954,-30.59008 -4.27856,-44.99526 -22.49145,-37.07261 -51.688,-70.08924 -85.81756,-96.82311 -25.10538,-11.42883 -54.92308,-21.81038 -81.48097,-29.24222 z"
     id="path95481-0-2-25" /><path
     id="path95485-3-3-8"
     style="mix-blend-mode:normal;fill:#04ae7f;fill-opacity:1;stroke:none;stroke-width:53.4558;stroke-linecap:round;stroke-linejoin:round;stroke-dasharray:none;stroke-opacity:1;paint-order:stroke fill markers"
     d="m 494.42067,474.01874 a 115.961,115.961 0 0 0 -57.50278,17.26454 115.961,115.961 0 0 0 -37.67948,159.59941 115.961,115.961 0 0 0 159.61083,37.68233 115.961,115.961 0 0 0 37.67948,-159.59941 115.961,115.961 0 0 0 -102.10805,-54.94687 z m 4.53444,14.32148 c 2.25057,0 4.51255,0.11985 6.78691,0.35385 27.18093,2.12121 52.46229,15.04725 69.85524,35.74757 3.70307,4.37178 6.28086,7.96927 9.89262,14.22825 4.83978,8.18139 7.54693,14.28724 10.01914,22.76065 11.06547,37.65855 -0.81995,78.76146 -30.31994,104.61925 -1.77021,1.56951 -4.10164,3.26742 -6.29419,4.94441 v 0.11985 l -3.28263,2.37899 c -2.96494,2.14594 -10.37299,6.30655 -14.05134,8.06534 -15.08625,7.15979 -31.06093,10.3844 -47.91359,9.69192 -34.54142,-1.39543 -66.22255,-20.56905 -83.4633,-50.52753 -11.21577,-19.40952 -15.51811,-40.43705 -13.03354,-63.0455 0.58785,-5.29541 3.10762,-16.16302 4.92349,-21.2368 3.06005,-8.54475 6.8221,-16.11546 11.5211,-23.08881 7.68771,-11.42788 17.44146,-20.95714 28.564,-28.29386 v 0 c 3.70307,-2.43891 7.55834,-4.64192 11.53156,-6.57669 13.93624,-6.76313 29.39537,-10.34825 45.21881,-10.18369 z" /><path
     style="mix-blend-mode:normal;fill:#26f9bb;fill-opacity:1;stroke:none;stroke-width:47.3527;stroke-linecap:round;stroke-linejoin:round;stroke-dasharray:none;stroke-opacity:1;paint-order:stroke fill markers"
     d="m 464.81319,634.21552 c 4.50019,-2.30765 10.74776,-5.76721 17.21887,-9.56255 l 3.22271,-1.88721 0.702,0.58499 c 8.4287,7.44135 17.53467,14.1826 26.71294,19.82996 8.92904,5.48755 16.66717,8.42775 24.7658,10.94847 -1.73501,1.05299 -3.529,2.28577 -4.29093,2.6615 v 0 c -6.48062,3.22176 -13.07919,5.42477 -20.45109,6.76218 -3.23698,0.58594 -4.85405,0.81994 -5.66163,0.81994 -0.82185,0 -1.32599,-0.11985 -3.20083,-0.81994 -14.77806,-5.08805 -26.74623,-13.29131 -35.05509,-23.80508 -0.82184,-0.93885 -2.39135,-3.23413 -3.59749,-5.19363 l -0.23875,-0.351 z"
     id="path95487-2-4-6" /><path
     style="mix-blend-mode:normal;fill:#26f9bb;fill-opacity:1;stroke:none;stroke-width:47.3527;stroke-linecap:round;stroke-linejoin:round;stroke-dasharray:none;stroke-opacity:1;paint-order:stroke fill markers"
     d="m 519.03333,599.8396 v 0 c 0.70294,0.23876 1.37165,0.585 2.33142,0.936 2.43987,1.05584 5.67399,2.53213 8.93285,4.04456 10.04482,4.65334 19.61974,9.81082 26.80521,14.44038 1.72265,1.05394 4.231,2.788 6.33984,4.26714 0.70294,0.468 1.23087,0.819 1.79208,1.2537 -4.35941,8.13478 -9.18777,14.52028 -15.63319,20.26561 -0.35386,0.351 -0.70485,0.585 -0.93885,0.819 -0.702,-0.11986 -1.75785,-0.351 -2.76613,-0.585 l -1.56951,-0.35385 c -6.70605,-1.5695 -10.99317,-3.02201 -17.00675,-5.7187 -8.9319,-4.03315 -17.13516,-9.08314 -26.66442,-16.49119 -2.08506,-1.6047 -4.65334,-3.75064 -6.71557,-5.4847 0.46895,-0.468 0.93694,-0.702 1.48865,-1.05585 6.21142,-4.03029 13.07919,-8.78826 20.47487,-14.20448 1.19473,-0.93884 2.29814,-1.61706 3.1295,-2.2382 z"
     id="path95489-1-1-7" /><path
     style="mix-blend-mode:normal;fill:#26f9bb;fill-opacity:1;stroke:none;stroke-width:47.3527;stroke-linecap:round;stroke-linejoin:round;stroke-dasharray:none;stroke-opacity:1;paint-order:stroke fill markers"
     d="m 447.05688,642.59571 v 0 c 0.3529,-0.11985 0.7039,-0.35099 1.05585,-0.46799 2.74235,-1.1738 6.24662,-2.6615 8.05297,-3.50523 l 0.351,0.46895 c 4.87592,8.35546 11.3204,14.80374 18.42311,20.58237 -4.32422,-1.45536 -8.82441,-1.46678 -12.97456,-3.72876 -3.23412,-1.77972 -5.55413,-3.26837 -9.11833,-5.92987 l -2.17828,-1.61706 -2.68528,-4.35942 z"
     id="path95491-2-1-7" /><path
     style="mix-blend-mode:normal;fill:#26f9bb;fill-opacity:1;stroke:none;stroke-width:47.3527;stroke-linecap:round;stroke-linejoin:round;stroke-dasharray:none;stroke-opacity:1;paint-order:stroke fill markers"
     d="m 553.76119,537.31061 c 5.70919,6.19906 11.84832,15.50574 13.02117,19.32581 4.98055,16.29239 5.00529,31.88184 0.351,45.06661 -0.702,1.87484 -2.01562,5.08519 -3.23413,7.77047 -0.351,0.58499 -0.468,1.05584 -0.702,1.55808 0,0 -0.2397,0 -0.35194,-0.11985 -2.21633,-1.35928 -6.15341,-3.58607 -9.01276,-5.10992 -0.70485,-0.351 -1.19662,-0.70199 -1.83013,-0.93599 8.90812,-19.80903 9.30763,-43.21555 1.79399,-67.44106 z"
     id="path95493-0-3-22" /><path
     style="mix-blend-mode:normal;fill:#26f9bb;fill-opacity:1;stroke:none;stroke-width:47.3527;stroke-linecap:round;stroke-linejoin:round;stroke-dasharray:none;stroke-opacity:1;paint-order:stroke fill markers"
     d="m 457.66577,584.25206 c 1.76735,-1.05585 3.50427,-2.15735 5.17841,-3.18942 v 0 c 14.41754,-8.40397 29.70165,-15.2841 42.93303,-19.34959 1.1738,-0.35195 3.70308,-1.05585 5.89658,-1.61801 0.35099,2.69478 0.81899,4.87592 1.05299,7.57071 0.11985,1.18521 0.35385,2.37898 0.35385,3.45956 0.702,6.91342 0.936,12.84424 0.819,18.44689 0,0.702 0,1.22992 0,1.74548 -0.11891,0.2397 -0.23876,0.35195 -0.585,0.46895 -1.27843,0.93884 -3.07242,2.24962 -5.05285,3.68119 -3.94849,2.85935 -8.68553,6.1867 -11.70754,8.2632 -2.49693,1.69792 -5.10992,3.44434 -5.90799,4.03219 -3.1409,2.14309 -21.59065,13.16005 -24.59078,14.72004 v 0 c -4.59436,2.35615 -8.63607,4.27856 -13.01926,6.27135 -2.16972,0.93599 -5.56841,2.41228 -8.42871,3.57371 -1.17284,0.468 -2.07364,0.82185 -2.91927,1.17285 -0.468,-0.468 -0.819,-0.93885 -1.38307,-1.59329 -1.74642,-2.01657 -3.97227,-4.72563 -6.03355,-7.42041 -0.58785,-0.702 -2.93164,-4.2662 -4.95962,-7.56025 l -2.80038,-4.50115 c -0.4699,-0.93599 -0.5869,-1.18235 -0.8209,-1.54572 v 0 c 6.79833,-7.98068 19.63116,-18.64759 31.87898,-26.51128 z"
     id="path95495-2-8-9" /><path
     style="mix-blend-mode:normal;fill:#26f9bb;fill-opacity:1;stroke:none;stroke-width:47.3527;stroke-linecap:round;stroke-linejoin:round;stroke-dasharray:none;stroke-opacity:1;paint-order:stroke fill markers"
     d="m 508.67271,514.66601 c 9.82128,1.39543 19.67776,3.77442 28.91499,9.1659 l 1.05395,0.70295 0.585,1.43062 c 7.38427,16.80605 10.8191,34.0468 9.90403,48.85054 -0.35099,6.35221 -2.19064,14.46226 -4.69804,20.94573 -0.23971,0.70199 -1.0568,2.41228 -1.67794,3.91234 -3.42057,-1.7217 -8.28698,-3.92471 -14.84845,-6.67942 -1.58187,-0.7039 -3.03627,-1.26607 -4.12637,-1.74548 0,-0.23875 0,-0.47085 0,-0.70485 0.46895,-18.31847 -3.08098,-43.05955 -8.5086,-60.32408 -2.13358,-6.88013 -4.27856,-10.99413 -6.63377,-15.44961 z"
     id="path95497-9-7-4" /><path
     style="mix-blend-mode:normal;fill:#26f9bb;fill-opacity:1;stroke:none;stroke-width:47.3527;stroke-linecap:round;stroke-linejoin:round;stroke-dasharray:none;stroke-opacity:1;paint-order:stroke fill markers"
     d="m 451.34685,542.05717 c 10.34826,-5.87185 22.6446,-9.81177 35.88835,-11.18247 5.70919,-0.585 11.73132,-0.585 17.78009,-0.11986 0.23875,0 0,0 0.23875,0 0.11986,0.82185 0.46895,1.46678 0.70295,2.43892 0.82185,2.71857 1.70077,6.10679 2.27435,8.30885 0.5869,2.45128 1.30126,5.60455 1.77021,8.07676 0,0.35099 0,0.58499 0,0.81994 -0.2397,0 0,0 -0.2397,0 -13.54909,3.30547 -28.83129,9.57682 -45.8371,18.69516 -5.85091,3.12949 -22.77396,13.55955 -27.47486,16.97061 -6.44542,4.67711 -10.23125,8.48482 -14.0304,12.37624 -0.1189,-1.40685 -0.351,-2.09743 -0.468,-3.24649 -0.58499,-6.77455 -0.1189,-13.30368 1.41921,-21.24822 0.819,-4.32422 1.17095,-5.08614 3.59749,-9.1307 5.54463,-9.10692 13.9819,-16.92495 24.34252,-22.78538 z"
     id="path95499-7-4-1" /><path
     style="mix-blend-mode:normal;fill:#26f9bb;fill-opacity:1;stroke:none;stroke-width:47.3527;stroke-linecap:round;stroke-linejoin:round;stroke-dasharray:none;stroke-opacity:1;paint-order:stroke fill markers"
     d="m 456.91526,524.88586 c 1.62943,-1.05395 3.23508,-1.9928 4.87592,-2.85935 v 0 c 9.97348,-5.27544 20.46346,-8.33264 30.77843,-9.03749 2.09742,0 3.44434,-0.23875 4.25192,-0.11985 v 0.11985 l 1.57236,2.5445 c 1.17285,1.94428 2.34284,4.27856 2.71857,5.04048 v 0 0 l 0.23875,0.351 c -17.13611,-0.702 -34.25891,2.53213 -49.5649,9.90404 -3.08383,1.46487 -5.62547,3.37586 -8.42775,5.10992 4.13778,-4.14919 8.70741,-7.93598 13.51389,-11.02932 z"
     id="path95501-6-2-96" /><path
     style="mix-blend-mode:normal;fill:#26f9bb;fill-opacity:1;stroke:none;stroke-width:52.9212;stroke-linecap:round;stroke-linejoin:round;stroke-dasharray:none;stroke-opacity:1;paint-order:stroke fill markers"
     d="m 312.49341,429.98515 c -10.8172,-2.91927 -25.42023,3.69262 -35.99393,17.57939 -7.32434,9.61296 -8.13383,11.23003 -11.4041,22.67979 -6.88013,23.99151 0.82185,51.25425 18.23667,64.32393 4.20912,3.1742 13.72602,6.35126 19.25638,6.45684 v 0 c 19.88036,0.351 34.93998,-14.22826 36.25361,-35.00942 1.58187,-24.51944 -7.57262,-60.12528 -18.30801,-71.28397 -2.26199,-2.36757 -5.00434,-3.92471 -8.04062,-4.74656 z"
     id="path95505-5-7-9" /><path
     style="mix-blend-mode:normal;fill:#26f9bb;fill-opacity:1;stroke:none;stroke-width:52.9212;stroke-linecap:round;stroke-linejoin:round;stroke-dasharray:none;stroke-opacity:1;paint-order:stroke fill markers"
     d="m 321.36539,365.88666 c -1.17095,-0.35385 -3.30357,1.69792 -7.07799,6.19906 -8.35641,10.32447 -16.39797,25.9025 -18.76459,36.5209 -0.81995,3.81057 -0.35195,5.16985 1.39448,7.1265 2.68337,2.91927 11.56676,5.82333 14.57925,4.80648 v 0 c 5.07663,-1.75879 6.78691,-5.56936 8.48578,-18.93011 1.54763,-11.93202 2.73284,-29.34685 2.30955,-33.83848 0,-1.16999 -0.351,-1.73406 -0.819,-1.86342 z"
     id="path95507-3-9-82" /><path
     style="mix-blend-mode:normal;fill:#26f9bb;fill-opacity:1;stroke:none;stroke-width:52.9212;stroke-linecap:round;stroke-linejoin:round;stroke-dasharray:none;stroke-opacity:1;paint-order:stroke fill markers"
     d="m 708.57695,433.03284 c -4.25478,-2.0042 -8.62561,-2.87076 -12.92604,-2.45032 -11.20625,1.17284 -22.3288,16.96109 -30.37987,43.38866 -5.9546,19.53889 -6.64518,24.81337 -4.89875,37.08498 1.4877,11.28805 4.62956,17.22933 11.86068,23.16015 8.41539,6.90201 23.72137,9.90214 33.05278,6.51677 v 0 c 14.89696,-5.41526 27.0725,-21.16736 31.2702,-40.37903 1.95665,-9.61011 0.11891,-31.21028 -3.54041,-39.23947 -6.24662,-13.72412 -15.10718,-23.6643 -24.49566,-28.06937 z"
     id="path95509-5-3-5" /><path
     style="mix-blend-mode:normal;fill:#26f9bb;fill-opacity:1;stroke:none;stroke-width:52.9212;stroke-linecap:round;stroke-linejoin:round;stroke-dasharray:none;stroke-opacity:1;paint-order:stroke fill markers"
     d="m 694.85284,366.14444 c -0.1189,0 -0.23876,-0.11986 -0.468,-0.23876 -1.85106,-0.35099 -3.38727,12.27161 -3.51664,25.80929 -0.1189,5.87184 -0.1189,13.23233 -0.23875,16.34946 -0.11985,6.30655 2.62535,11.60481 6.51676,13.26753 3.04579,1.34787 10.24363,0.35195 13.58334,-1.95569 3.78678,-2.59016 4.10163,-5.96507 1.60565,-16.6919 -3.14186,-13.93434 -13.21997,-34.57377 -17.58034,-36.62649 z"
     id="path95511-1-1-5" /><path
     style="mix-blend-mode:normal;fill:#26f9bb;fill-opacity:1;stroke:none;stroke-width:52.9212;stroke-linecap:round;stroke-linejoin:round;stroke-dasharray:none;stroke-opacity:1;paint-order:stroke fill markers"
     d="m 458.84813,318.01777 c -2.88313,-0.70199 -6.48157,-0.93599 -11.12255,-0.93599 -18.1796,0 -34.6822,9.64626 -48.38254,28.21015 -17.0058,22.99559 -21.16736,52.81329 -10.8524,77.81309 3.98464,9.7157 12.03476,19.1156 20.15718,23.55872 7.22161,3.94944 27.28556,5.73106 34.31884,3.05815 v 0 c 12.96219,-4.95678 20.34646,-11.90825 26.2535,-24.75344 12.09564,-26.38286 12.16698,-82.08975 0.11985,-99.65962 -2.77849,-4.0322 -5.6835,-6.24662 -10.5014,-7.33671 z"
     id="path95513-1-9-4" /><path
     style="mix-blend-mode:normal;fill:#26f9bb;fill-opacity:1;stroke:none;stroke-width:52.9212;stroke-linecap:round;stroke-linejoin:round;stroke-dasharray:none;stroke-opacity:1;paint-order:stroke fill markers"
     d="m 460.24356,246.53501 c 0,0 -0.23971,0 -0.23971,0 -0.7039,0 -3.80961,3.56229 -6.21047,8.04156 -7.52506,13.33697 -12.88134,30.94013 -12.84805,42.27574 -0.23875,5.4847 0.46895,6.93721 2.82606,8.78827 3.14186,2.60157 11.6029,4.18534 15.23654,2.8603 v 0 c 1.46487,-0.58595 3.763,-2.5426 5.0167,-4.48878 2.33143,-3.0943 2.41323,-4.65429 2.04987,-12.50656 -0.23876,-9.76326 -2.58921,-34.65747 -3.84386,-40.94975 -0.58499,-2.08792 -1.51243,-3.76205 -2.19064,-4.00842 z"
     id="path95515-4-8-91" /><path
     style="mix-blend-mode:normal;fill:#26f9bb;fill-opacity:1;stroke:none;stroke-width:52.9212;stroke-linecap:round;stroke-linejoin:round;stroke-dasharray:none;stroke-opacity:1;paint-order:stroke fill markers"
     d="m 581.85624,324.73525 c -10.89995,-4.19676 -26.38286,-4.44312 -32.85397,-0.23876 -3.63364,2.3105 -8.75497,10.78296 -10.77154,17.65168 -6.56243,22.42201 -6.59858,63.53728 0,82.93443 4.85404,14.4984 14.9331,25.38694 27.48627,29.77014 6.33984,2.21442 23.24196,2.10979 29.85194,-0.1189 h -0.11985 c 11.06262,-3.86764 19.6673,-12.24783 25.56387,-24.89517 9.66719,-20.73266 8.68363,-46.59997 -2.47506,-69.18654 -7.23112,-14.4147 -21.60016,-29.00822 -34.4815,-34.91335 -0.70199,-0.35386 -1.38306,-0.58785 -2.1212,-0.93885 z"
     id="path95517-0-6-2" /><path
     style="mix-blend-mode:normal;fill:#26f9bb;fill-opacity:1;stroke:none;stroke-width:52.9212;stroke-linecap:round;stroke-linejoin:round;stroke-dasharray:none;stroke-opacity:1;paint-order:stroke fill markers"
     d="m 557.93417,250.84686 c -0.468,-0.23876 -0.82185,0.35385 -1.20614,1.05585 -1.05585,1.95664 -2.90786,11.20434 -5.80241,29.57038 -0.70294,4.04361 -1.05679,11.39174 -1.05679,16.29144 0,8.15856 0,9.19063 2.88408,11.87305 2.54354,2.49599 3.95134,2.95542 9.37611,2.95542 5.18126,0 6.88013,-0.47085 9.30668,-2.73093 v 0 c 2.54449,-2.40277 2.90786,-3.57562 2.89549,-9.96397 0,-12.4219 -6.21333,-33.36763 -13.44445,-45.19312 -1.42873,-2.48647 -2.27436,-3.65742 -2.88313,-3.86954 z"
     id="path95519-0-5-5" /></svg>
