<?xml version="1.0" encoding="UTF-8" standalone="no"?>
<svg
   width="1226.4937"
   height="1187.7313"
   viewBox="0 0 324.50977 314.25391"
   version="1.1"
   id="svg5"
   inkscape:version="1.4 (86a8ad7, 2024-10-11)"
   sodipodi:docname="mosi-oa-tunya-cubs-logo.svg"
   xml:space="preserve"
   xmlns:inkscape="http://www.inkscape.org/namespaces/inkscape"
   xmlns:sodipodi="http://sodipodi.sourceforge.net/DTD/sodipodi-0.dtd"
   xmlns="http://www.w3.org/2000/svg"
   xmlns:svg="http://www.w3.org/2000/svg"
   xmlns:rdf="http://www.w3.org/1999/02/22-rdf-syntax-ns#"
   xmlns:cc="http://creativecommons.org/ns#"
   xmlns:dc="http://purl.org/dc/elements/1.1/"><metadata
     id="metadata5714"><rdf:RDF><cc:Work
         rdf:about=""><dc:format>image/svg+xml</dc:format><dc:type
           rdf:resource="http://purl.org/dc/dcmitype/StillImage" /></cc:Work></rdf:RDF></metadata><sodipodi:namedview
     id="namedview7"
     pagecolor="#505050"
     bordercolor="#eeeeee"
     borderopacity="1"
     inkscape:showpageshadow="0"
     inkscape:pageopacity="0"
     inkscape:pagecheckerboard="0"
     inkscape:deskcolor="#505050"
     inkscape:document-units="mm"
     showgrid="false"
     inkscape:zoom="0.032635983"
     inkscape:cx="-129856.67"
     inkscape:cy="64361.474"
     inkscape:window-width="1920"
     inkscape:window-height="1046"
     inkscape:window-x="-11"
     inkscape:window-y="-11"
     inkscape:window-maximized="1"
     inkscape:current-layer="layer1"
     inkscape:document-rotation="0" /><defs
     id="defs2" /><g
     inkscape:label="Layer 1"
     inkscape:groupmode="layer"
     id="layer1"
     transform="translate(29315.141,-17610.955)"><g
       id="g6790-9-1"
       transform="matrix(1.1705243,0,0,1.1705243,6773.2071,-2856.6253)"
       inkscape:export-filename="motc-logo-icon-2.svg"
       inkscape:export-xdpi="96"
       inkscape:export-ydpi="96"
       style="stroke:#047a5b;stroke-width:10.2518;stroke-dasharray:none;stroke-opacity:1"><path
         id="path95485-3-3-3-6-7-0"
         style="mix-blend-mode:normal;fill:#04ae7f;fill-opacity:1;stroke:#047a5b;stroke-width:10.2518;stroke-linecap:round;stroke-linejoin:round;stroke-dasharray:none;stroke-opacity:1;paint-order:stroke fill markers"
         d="m -30695.417,17618.837 a 65.191675,65.191675 0 0 0 -32.327,9.706 65.191675,65.191675 0 0 0 -21.183,89.724 65.191675,65.191675 0 0 0 89.731,21.185 65.191675,65.191675 0 0 0 21.183,-89.725 65.191675,65.191675 0 0 0 -57.404,-30.89 z m 2.549,8.051 c 1.266,0 2.537,0.07 3.816,0.199 15.281,1.193 29.493,8.459 39.271,20.097 2.082,2.458 3.532,4.48 5.562,7.999 2.721,4.599 4.243,8.032 5.633,12.795 6.22,21.172 -0.461,44.279 -17.046,58.816 -0.995,0.882 -2.306,1.837 -3.538,2.78 v 0.07 l -1.846,1.337 c -1.667,1.207 -5.831,3.546 -7.899,4.535 -8.482,4.025 -17.462,5.838 -26.937,5.448 -19.418,-0.784 -37.229,-11.563 -46.922,-28.406 -6.305,-10.911 -8.724,-22.733 -7.327,-35.443 0.331,-2.977 1.747,-9.087 2.768,-11.939 1.72,-4.804 3.835,-9.06 6.477,-12.98 4.322,-6.425 9.805,-11.782 16.058,-15.907 v 0 c 2.082,-1.371 4.25,-2.609 6.483,-3.697 7.835,-3.802 16.526,-5.818 25.422,-5.725 z" /><path
         style="mix-blend-mode:normal;fill:#26f9bb;fill-opacity:1;stroke:#047a5b;stroke-width:10.2518;stroke-linecap:round;stroke-linejoin:round;stroke-dasharray:none;stroke-opacity:1;paint-order:stroke fill markers"
         d="m -30712.062,17708.897 c 2.53,-1.297 6.042,-3.242 9.68,-5.376 l 1.812,-1.061 0.395,0.329 c 4.738,4.184 9.858,7.973 15.017,11.148 5.02,3.085 9.371,4.738 13.923,6.155 -0.975,0.592 -1.983,1.285 -2.412,1.497 v 0 c -3.643,1.811 -7.353,3.049 -11.497,3.801 -1.82,0.33 -2.729,0.461 -3.183,0.461 -0.462,0 -0.745,-0.07 -1.799,-0.461 -8.309,-2.86 -15.037,-7.472 -19.708,-13.383 -0.462,-0.528 -1.344,-1.818 -2.022,-2.919 l -0.135,-0.198 z"
         id="path95487-2-4-7-2-3-6" /><path
         style="mix-blend-mode:normal;fill:#26f9bb;fill-opacity:1;stroke:#047a5b;stroke-width:10.2518;stroke-linecap:round;stroke-linejoin:round;stroke-dasharray:none;stroke-opacity:1;paint-order:stroke fill markers"
         d="m -30681.58,17689.571 v 0 c 0.395,0.135 0.771,0.329 1.311,0.527 1.371,0.593 3.19,1.423 5.022,2.273 5.647,2.617 11.03,5.516 15.069,8.119 0.969,0.592 2.379,1.567 3.564,2.399 0.396,0.263 0.692,0.46 1.008,0.704 -2.451,4.574 -5.165,8.163 -8.789,11.393 -0.199,0.198 -0.396,0.329 -0.528,0.461 -0.394,-0.07 -0.988,-0.197 -1.555,-0.329 l -0.882,-0.199 c -3.77,-0.882 -6.18,-1.699 -9.561,-3.215 -5.022,-2.267 -9.633,-5.106 -14.991,-9.271 -1.172,-0.902 -2.616,-2.109 -3.775,-3.083 0.264,-0.264 0.527,-0.395 0.837,-0.594 3.492,-2.266 7.353,-4.941 11.511,-7.986 0.671,-0.527 1.292,-0.909 1.759,-1.258 z"
         id="path95489-1-1-4-6-6-3" /><path
         style="mix-blend-mode:normal;fill:#26f9bb;fill-opacity:1;stroke:#047a5b;stroke-width:10.2518;stroke-linecap:round;stroke-linejoin:round;stroke-dasharray:none;stroke-opacity:1;paint-order:stroke fill markers"
         d="m -30722.044,17713.608 v 0 c 0.198,-0.07 0.396,-0.197 0.593,-0.263 1.542,-0.66 3.512,-1.496 4.528,-1.97 l 0.197,0.263 c 2.741,4.698 6.364,8.323 10.357,11.571 -2.431,-0.818 -4.961,-0.824 -7.294,-2.096 -1.818,-1 -3.122,-1.837 -5.126,-3.334 l -1.225,-0.909 -1.509,-2.45 z"
         id="path95491-2-1-3-1-1-2" /><path
         style="mix-blend-mode:normal;fill:#26f9bb;fill-opacity:1;stroke:#047a5b;stroke-width:10.2518;stroke-linecap:round;stroke-linejoin:round;stroke-dasharray:none;stroke-opacity:1;paint-order:stroke fill markers"
         d="m -30662.056,17654.419 c 3.209,3.485 6.661,8.717 7.32,10.864 2.8,9.16 2.814,17.924 0.197,25.336 -0.394,1.054 -1.133,2.859 -1.818,4.369 -0.197,0.328 -0.263,0.593 -0.395,0.875 0,0 -0.134,0 -0.197,-0.07 -1.246,-0.764 -3.46,-2.016 -5.067,-2.873 -0.397,-0.197 -0.673,-0.394 -1.029,-0.526 5.008,-11.136 5.232,-24.295 1.008,-37.914 z"
         id="path95493-0-3-8-8-2-0" /><path
         style="mix-blend-mode:normal;fill:#26f9bb;fill-opacity:1;stroke:#047a5b;stroke-width:10.2518;stroke-linecap:round;stroke-linejoin:round;stroke-dasharray:none;stroke-opacity:1;paint-order:stroke fill markers"
         d="m -30716.08,17680.808 c 0.994,-0.593 1.97,-1.212 2.911,-1.793 v 0 c 8.106,-4.724 16.698,-8.592 24.137,-10.878 0.66,-0.198 2.081,-0.593 3.315,-0.909 0.197,1.515 0.46,2.741 0.592,4.256 0.07,0.666 0.199,1.337 0.199,1.945 0.394,3.886 0.526,7.221 0.46,10.37 0,0.395 0,0.692 0,0.982 -0.07,0.134 -0.134,0.197 -0.329,0.263 -0.719,0.528 -1.727,1.265 -2.841,2.07 -2.219,1.607 -4.882,3.478 -6.581,4.645 -1.404,0.955 -2.873,1.937 -3.322,2.267 -1.766,1.205 -12.138,7.398 -13.824,8.275 v 0 c -2.583,1.325 -4.855,2.406 -7.32,3.526 -1.219,0.526 -3.13,1.356 -4.738,2.009 -0.659,0.263 -1.166,0.462 -1.641,0.66 -0.263,-0.264 -0.461,-0.528 -0.778,-0.896 -0.982,-1.134 -2.233,-2.657 -3.392,-4.172 -0.33,-0.394 -1.648,-2.398 -2.788,-4.25 l -1.574,-2.531 c -0.265,-0.526 -0.33,-0.664 -0.462,-0.869 v 0 c 3.822,-4.486 11.036,-10.483 17.922,-14.904 z"
         id="path95495-2-8-0-7-9-6" /><path
         style="mix-blend-mode:normal;fill:#26f9bb;fill-opacity:1;stroke:#047a5b;stroke-width:10.2518;stroke-linecap:round;stroke-linejoin:round;stroke-dasharray:none;stroke-opacity:1;paint-order:stroke fill markers"
         d="m -30687.405,17641.688 c 5.522,0.785 11.063,2.122 16.256,5.153 l 0.593,0.395 0.328,0.804 c 4.152,9.449 6.083,19.141 5.568,27.464 -0.197,3.571 -1.231,8.13 -2.641,11.775 -0.135,0.395 -0.594,1.356 -0.943,2.199 -1.923,-0.967 -4.659,-2.206 -8.348,-3.755 -0.889,-0.395 -1.707,-0.711 -2.32,-0.981 0,-0.134 0,-0.265 0,-0.396 0.264,-10.299 -1.732,-24.208 -4.783,-33.914 -1.199,-3.867 -2.405,-6.18 -3.729,-8.685 z"
         id="path95497-9-7-8-9-3-1" /><path
         style="mix-blend-mode:normal;fill:#26f9bb;fill-opacity:1;stroke:#047a5b;stroke-width:10.2518;stroke-linecap:round;stroke-linejoin:round;stroke-dasharray:none;stroke-opacity:1;paint-order:stroke fill markers"
         d="m -30719.632,17657.087 c 5.817,-3.301 12.73,-5.516 20.176,-6.287 3.209,-0.329 6.595,-0.329 9.995,-0.07 0.135,0 0,0 0.135,0 0.07,0.462 0.263,0.825 0.395,1.371 0.462,1.528 0.956,3.433 1.278,4.671 0.33,1.378 0.732,3.151 0.995,4.541 0,0.197 0,0.329 0,0.461 -0.134,0 0,0 -0.134,0 -7.617,1.858 -16.209,5.384 -25.769,10.51 -3.29,1.759 -12.803,7.623 -15.446,9.541 -3.624,2.629 -5.752,4.77 -7.888,6.957 -0.07,-0.791 -0.197,-1.179 -0.263,-1.825 -0.329,-3.808 -0.07,-7.479 0.798,-11.945 0.46,-2.431 0.658,-2.86 2.022,-5.133 3.117,-5.12 7.861,-9.515 13.685,-12.81 z"
         id="path95499-7-4-8-2-1-5" /><path
         style="mix-blend-mode:normal;fill:#26f9bb;fill-opacity:1;stroke:#047a5b;stroke-width:10.2518;stroke-linecap:round;stroke-linejoin:round;stroke-dasharray:none;stroke-opacity:1;paint-order:stroke fill markers"
         d="m -30716.502,17647.434 c 0.916,-0.593 1.819,-1.121 2.741,-1.608 v 0 c 5.607,-2.966 11.505,-4.684 17.304,-5.081 1.179,0 1.936,-0.134 2.39,-0.07 v 0.07 l 0.884,1.431 c 0.659,1.093 1.317,2.405 1.528,2.833 v 0 0 l 0.134,0.198 c -9.633,-0.395 -19.259,1.423 -27.864,5.568 -1.734,0.823 -3.163,1.898 -4.738,2.872 2.326,-2.332 4.895,-4.461 7.597,-6.2 z"
         id="path95501-6-2-0-0-9-5" /><path
         style="mix-blend-mode:normal;fill:#26f9bb;fill-opacity:1;stroke:#047a5b;stroke-width:10.2518;stroke-linecap:round;stroke-linejoin:round;stroke-dasharray:none;stroke-opacity:1;paint-order:stroke fill markers"
         d="m -30797.694,17594.082 c -6.081,-1.642 -14.291,2.076 -20.235,9.883 -4.118,5.404 -4.573,6.313 -6.411,12.75 -3.868,13.487 0.462,28.814 10.252,36.162 2.366,1.784 7.717,3.57 10.826,3.63 v 0 c 11.176,0.197 19.642,-7.999 20.381,-19.682 0.889,-13.785 -4.257,-33.802 -10.293,-40.075 -1.271,-1.331 -2.813,-2.206 -4.52,-2.668 z"
         id="path95505-5-7-6-2-4-4" /><path
         style="mix-blend-mode:normal;fill:#26f9bb;fill-opacity:1;stroke:#047a5b;stroke-width:10.2518;stroke-linecap:round;stroke-linejoin:round;stroke-dasharray:none;stroke-opacity:1;paint-order:stroke fill markers"
         d="m -30792.706,17558.046 c -0.658,-0.199 -1.857,0.955 -3.979,3.485 -4.698,5.805 -9.219,14.562 -10.549,20.532 -0.461,2.142 -0.198,2.906 0.783,4.006 1.509,1.642 6.503,3.274 8.197,2.702 v 0 c 2.854,-0.988 3.815,-3.131 4.77,-10.642 0.87,-6.708 1.537,-16.498 1.299,-19.023 0,-0.658 -0.198,-0.975 -0.461,-1.048 z"
         id="path95507-3-9-8-3-7-7" /><path
         style="mix-blend-mode:normal;fill:#26f9bb;fill-opacity:1;stroke:#047a5b;stroke-width:10.2518;stroke-linecap:round;stroke-linejoin:round;stroke-dasharray:none;stroke-opacity:1;paint-order:stroke fill markers"
         d="m -30575.021,17595.795 c -2.392,-1.127 -4.849,-1.614 -7.267,-1.378 -6.3,0.66 -12.553,9.536 -17.079,24.393 -3.348,10.984 -3.736,13.95 -2.754,20.849 0.836,6.346 2.603,9.686 6.668,13.02 4.731,3.88 13.336,5.567 18.582,3.664 v 0 c 8.374,-3.045 15.219,-11.9 17.579,-22.701 1.1,-5.403 0.07,-17.546 -1.99,-22.06 -3.512,-7.715 -8.493,-13.304 -13.771,-15.78 z"
         id="path95509-5-3-1-7-8-6" /><path
         style="mix-blend-mode:normal;fill:#26f9bb;fill-opacity:1;stroke:#047a5b;stroke-width:10.2518;stroke-linecap:round;stroke-linejoin:round;stroke-dasharray:none;stroke-opacity:1;paint-order:stroke fill markers"
         d="m -30582.737,17558.191 c -0.07,0 -0.134,-0.07 -0.263,-0.134 -1.04,-0.197 -1.904,6.899 -1.977,14.51 -0.07,3.301 -0.07,7.439 -0.134,9.191 -0.07,3.546 1.476,6.524 3.664,7.459 1.712,0.758 5.758,0.198 7.636,-1.1 2.129,-1.456 2.306,-3.353 0.903,-9.383 -1.767,-7.834 -7.432,-19.437 -9.884,-20.591 z"
         id="path95511-1-1-9-5-4-5" /><path
         style="mix-blend-mode:normal;fill:#26f9bb;fill-opacity:1;stroke:#047a5b;stroke-width:10.2518;stroke-linecap:round;stroke-linejoin:round;stroke-dasharray:none;stroke-opacity:1;paint-order:stroke fill markers"
         d="m -30715.415,17531.135 c -1.621,-0.395 -3.644,-0.526 -6.253,-0.526 -10.221,0 -19.498,5.423 -27.2,15.859 -9.561,12.928 -11.9,29.691 -6.101,43.746 2.24,5.462 6.766,10.746 11.332,13.244 4.06,2.22 15.339,3.222 19.293,1.719 v 0 c 7.288,-2.786 11.439,-6.694 14.76,-13.916 6.8,-14.832 6.84,-46.149 0.07,-56.027 -1.562,-2.267 -3.195,-3.512 -5.904,-4.125 z"
         id="path95513-1-9-8-9-5-6" /><path
         style="mix-blend-mode:normal;fill:#26f9bb;fill-opacity:1;stroke:#047a5b;stroke-width:10.2518;stroke-linecap:round;stroke-linejoin:round;stroke-dasharray:none;stroke-opacity:1;paint-order:stroke fill markers"
         d="m -30714.631,17490.949 c 0,0 -0.135,0 -0.135,0 -0.395,0 -2.141,2.002 -3.491,4.52 -4.23,7.498 -7.242,17.394 -7.223,23.767 -0.134,3.084 0.264,3.9 1.589,4.941 1.766,1.462 6.523,2.353 8.566,1.608 v 0 c 0.823,-0.33 2.115,-1.43 2.82,-2.524 1.311,-1.739 1.357,-2.616 1.152,-7.031 -0.134,-5.488 -1.455,-19.484 -2.161,-23.021 -0.329,-1.174 -0.85,-2.115 -1.231,-2.254 z"
         id="path95515-4-8-9-2-0-9" /><path
         style="mix-blend-mode:normal;fill:#26f9bb;fill-opacity:1;stroke:#047a5b;stroke-width:10.2518;stroke-linecap:round;stroke-linejoin:round;stroke-dasharray:none;stroke-opacity:1;paint-order:stroke fill markers"
         d="m -30646.262,17534.912 c -6.128,-2.36 -14.832,-2.498 -18.47,-0.135 -2.043,1.299 -4.922,6.062 -6.055,9.924 -3.69,12.605 -3.71,35.72 0,46.624 2.728,8.151 8.395,14.273 15.452,16.737 3.564,1.245 13.066,1.186 16.782,-0.07 h -0.07 c 6.219,-2.174 11.057,-6.886 14.372,-13.996 5.434,-11.655 4.881,-26.198 -1.392,-38.895 -4.065,-8.104 -12.143,-16.308 -19.385,-19.628 -0.395,-0.199 -0.777,-0.331 -1.192,-0.528 z"
         id="path95517-0-6-7-2-3-3" /><path
         style="mix-blend-mode:normal;fill:#26f9bb;fill-opacity:1;stroke:#047a5b;stroke-width:10.2518;stroke-linecap:round;stroke-linejoin:round;stroke-dasharray:none;stroke-opacity:1;paint-order:stroke fill markers"
         d="m -30659.71,17493.373 c -0.264,-0.135 -0.462,0.199 -0.679,0.593 -0.593,1.1 -1.634,6.299 -3.262,16.624 -0.395,2.273 -0.594,6.404 -0.594,9.159 0,4.587 0,5.167 1.622,6.675 1.43,1.403 2.221,1.661 5.271,1.661 2.913,0 3.868,-0.264 5.232,-1.535 v 0 c 1.43,-1.351 1.635,-2.01 1.628,-5.601 0,-6.984 -3.493,-18.759 -7.559,-25.407 -0.803,-1.398 -1.278,-2.057 -1.62,-2.176 z"
         id="path95519-0-5-2-8-6-7" /></g></g></svg>
